<svg xmlns="http://www.w3.org/2000/svg"
shape-rendering="geometricPrecision"
width="4000" height="4000" viewBox="0 0 522 522">
  <metadata>null</metadata>

<path d="
M 23.698 382.774
C 25.386 382.858 27.082 382.766 28.773 382.82
C 28.666 384.557 28.715 386.325 28.779 388.064
C 28.827 388.378 30.747 385.943 31.153 385.557
C 32.858 383.938 34.979 382.776 37.298 382.327
C 44.415 380.949 50.718 383.336 54.003 389.874
C 54.672 389.491 55.141 387.814 55.716 387.137
C 57.356 385.204 59.322 383.753 61.726 382.922
C 63.917 382.164 66.223 382.049 68.523 382.149
C 70.031 382.214 71.548 382.318 72.98 382.826
C 83.102 386.414 82.127 397.436 82.083 406.197
C 82.069 409.129 82.088 412.06 82.083 414.992
C 82.079 417.253 81.718 419.994 82.189 422.199
C 80.597 421.968 78.763 422.089 77.153 422.133
C 76.168 415.652 76.95 408.544 76.94 401.996
C 76.934 398.281 77.19 394.395 75.197 391.092
C 70.953 384.059 60.2 386.039 56.704 392.617
C 54.84 396.126 55.183 400.322 55.217 404.16
C 55.269 410.196 55.16 416.247 55.311 422.278
C 53.703 422.18 52.09 422.265 50.484 422.345
C 49.979 421.957 50.261 420.633 50.276 420.003
C 50.325 418.007 50.267 415.999 50.26 414.002
C 50.245 409.502 50.193 405.003 50.159 400.504
C 50.135 397.344 50.285 394.083 48.72 391.216
C 44.998 384.395 34.207 385.461 30.685 391.901
C 28.696 395.537 28.861 399.486 28.809 403.501
C 28.727 409.732 28.589 416.031 28.905 422.255
C 27.234 422.209 25.492 422.101 23.833 422.325
C 23.447 421.913 23.699 420.265 23.706 419.675
C 23.734 417.284 23.739 414.891 23.741 412.5
C 23.748 402.633 23.256 392.623 23.698 382.774 Z"
opacity="1" fill="rgb(46,98,139)" fill-rule="evenodd" />
<path d="
M 86.788 382.809
C 88.295 382.962 91.815 381.975 92.956 382.934
C 93.755 385.733 95.254 388.407 96.36 391.1
C 98.749 396.913 101.241 402.705 103.821 408.438
C 104.756 410.516 105.67 412.623 106.515 414.739
C 106.731 415.28 106.939 416.638 107.449 416.909
C 108.679 411.727 111.38 406.714 113.456 401.821
C 116.108 395.568 118.416 389.048 121.385 382.949
C 123.083 382.716 124.888 382.724 126.596 382.841
C 121.451 394.092 116.658 405.51 111.785 416.885
C 109.609 421.964 108.026 427.662 105.061 432.347
C 101.198 438.451 92.242 438.89 87.184 433.937
C 87.495 432.615 88.191 431.402 88.927 430.269
C 91.295 430.96 92.822 432.935 95.538 433.107
C 99.802 433.377 101.838 429.341 103.467 426.047
C 103.914 425.144 104.659 424.029 104.664 422.988
C 104.668 421.84 103.724 420.412 103.25 419.386
C 102.115 416.928 100.99 414.458 99.934 411.964
C 95.82 402.242 91.934 392.039 86.788 382.809 Z"
opacity="1" fill="rgb(44,94,138)" fill-rule="evenodd" />
<path d="
M 116.451 277.252
C 120.675 275.237 124.571 272.449 128.845 270.436
C 137.152 266.524 146.183 263.856 155.18 262.111
C 181.424 257.021 209.169 261.019 233.994 270.404
C 253.582 277.81 271.527 288.858 291.261 295.917
C 307.662 301.783 324.798 304.096 342.129 302.04
C 347.831 301.363 353.464 300.075 358.941 298.362
C 361.076 297.694 363.151 297.049 365.182 296.096
C 365.375 296.005 367.095 295.253 367.047 295.885
C 367.004 296.46 365.376 297.415 364.97 297.729
C 362.776 299.427 360.74 301.295 358.508 302.954
C 349.112 309.937 338.837 314.773 327.685 318.218
C 322.298 319.882 316.546 320.817 310.931 321.234
C 305.974 321.603 301.006 321.618 296.055 321.083
C 257.18 316.88 227.57 289.096 190.959 278.086
C 174.849 273.242 157.779 270.562 140.961 272.551
C 135.306 273.219 129.772 274.171 124.256 275.603
C 121.839 276.231 119.297 277.768 116.876 278.123
C 116.645 278.157 115.841 277.543 116.451 277.252 Z"
opacity="1" fill="rgb(51,38,88)" fill-rule="evenodd" />
<path d="
M 134.468 364.61
C 134.561 363.985 134.536 364.356 134.464 363.495
C 138.722 362.667 143.668 363.313 148.004 363.315
C 158.648 363.321 169.425 362.742 178.475 369.366
C 194.329 380.972 193.462 407.486 176.75 417.81
C 167.854 423.306 157.633 422.599 147.632 422.427
C 143.304 422.353 138.893 422.748 134.579 422.379
C 133.659 414.612 134.404 406.328 134.394 398.498
C 134.379 387.257 133.833 375.831 134.468 364.61 Z
M 143.487 373.124
C 142.333 386.937 144.43 400.966 143.62 414.79
C 151.028 414.45 159.103 416.016 166.259 413.559
C 170.659 412.047 174.707 409.292 177.274 405.362
C 182.704 397.049 181.723 384.717 174.81 377.578
C 170.128 372.742 163.417 371.781 157.005 371.741
C 153.713 371.72 150.419 371.798 147.128 371.757
C 146.121 371.745 144.299 371.421 143.563 372.167
C 143.552 372.886 143.59 372.568 143.487 373.124 Z"
opacity="1" fill="rgb(55,100,145)" fill-rule="evenodd" />
<path d="
M 149.929 256.412
C 150.066 256.332 150.203 256.252 150.34 256.173
C 161.966 249.265 176.117 245.69 189.438 244.057
C 214.963 240.928 240.487 244.067 264.873 252.133
C 284.789 258.721 303.994 268.24 324.601 272.587
C 342.859 276.438 360.845 276.691 378.777 271.016
C 385.323 268.945 391.267 265.763 397.25 262.459
C 398.705 261.655 400.115 260.766 401.439 259.763
C 401.733 259.541 402.523 258.654 402.978 259
C 403.364 259.293 401.992 260.757 401.829 260.95
C 400.244 262.823 398.751 264.766 397.123 266.602
C 391.078 273.423 383.873 279.422 375.941 283.927
C 368.87 287.943 361.496 291.083 353.605 293.067
C 343.685 295.562 333.231 296.455 323.03 295.59
C 289.66 292.758 261.591 271.585 230.327 261.672
C 213.002 256.178 195.247 252.739 177.009 253.292
C 170.815 253.479 164.66 254.111 158.53 254.969
C 156.403 255.266 154.06 255.677 152.017 256.339
C 151.457 256.521 149.767 257.58 149.929 256.412 Z"
opacity="1" fill="rgb(106,162,164)" fill-rule="evenodd" />
<path d="
M 162.713 278.341
C 172.55 280.509 182.354 282.19 191.984 285.269
C 199.616 287.709 206.832 291.186 214.138 294.427
C 219.635 296.865 224.922 299.875 230.175 302.789
C 231.853 303.721 233.494 304.839 235.205 305.692
C 235.578 305.878 238.028 307.055 237.813 307.096
C 233.815 307.363 229.328 306.789 225.323 306.453
C 208.241 305.019 192.105 299.976 177.752 290.44
C 173.729 287.767 169.827 284.993 166.208 281.783
C 165.418 281.082 162.645 279.388 162.713 278.341 Z"
opacity="1" fill="rgb(41,24,68)" fill-rule="evenodd" />
<path d="
M 198.954 235.56
C 200.929 235.065 202.978 235.067 204.983 234.762
C 209.383 234.092 213.8 233.421 218.199 232.721
C 234.736 230.089 251.332 227.962 267.94 225.851
C 268.249 222.291 267.872 218.515 267.887 214.93
C 267.921 206.622 267.935 198.315 267.955 190.007
C 268.013 166.025 268.187 141.999 268.304 118.002
C 268.346 109.463 268.35 100.927 268.563 92.391
C 268.614 90.349 268.685 88.303 268.59 86.262
C 268.575 85.943 268.497 84.457 268.717 84.381
C 269.114 84.244 269.789 86.321 269.866 86.63
C 270.56 89.449 271.192 92.093 271.313 95.025
C 271.825 107.487 271.8 120.02 271.781 132.493
C 271.756 149.684 271.619 166.91 271.937 184.098
C 272.106 193.22 272.2 202.366 272.231 211.499
C 272.247 216.085 272.505 220.749 272.19 225.324
C 273.443 225.896 276.923 224.75 278.362 224.595
C 284.121 223.977 289.865 223.185 295.635 222.666
C 310.058 221.369 324.475 220.078 338.927 219.119
C 343.088 218.843 347.256 218.781 351.417 218.546
C 354.048 218.398 356.879 217.959 359.496 218.314
C 358.52 220.152 356.945 221.728 355.665 223.362
C 353.034 226.721 350.283 229.983 347.647 233.337
C 339.215 244.07 330.47 255.415 320.207 264.474
C 319.44 264.789 318.464 264.258 317.722 264.007
C 316.124 263.467 314.512 262.961 312.894 262.484
C 305.604 260.334 298.291 257.693 291.29 254.732
C 271.936 246.545 251.321 239.912 230.468 237.078
C 223.536 236.137 216.485 235.491 209.485 235.646
C 207.239 235.697 205.006 235.697 202.764 235.812
C 201.526 235.875 200.112 236.189 198.954 235.56 Z"
opacity="1" fill="rgb(47,97,138)" fill-rule="evenodd" />
<path d="
M 199.664 363.157
C 202.647 362.705 205.85 363.11 208.872 363.01
C 208.511 366.425 208.817 370.059 208.823 373.498
C 208.831 378.024 208.604 382.618 208.873 387.134
C 209.886 386.513 210.597 385.399 211.523 384.636
C 213.22 383.236 215.052 382.332 217.162 381.735
C 224.731 379.589 234.08 381.819 237.606 389.427
C 239.665 393.87 239.602 398.967 239.601 403.77
C 239.601 408.513 239.61 413.256 239.608 417.998
C 239.607 418.698 240.022 422.064 239.504 422.407
C 236.681 422.493 233.842 422.244 231.021 422.449
C 230.407 421.885 230.585 420.975 230.588 420.172
C 230.594 418.3 230.614 416.428 230.619 414.556
C 230.631 410.478 230.666 406.399 230.648 402.322
C 230.634 399.104 230.615 395.818 228.833 392.999
C 224.641 386.368 214.022 387.949 210.507 394.296
C 208.455 398.001 208.742 402.041 208.732 406.146
C 208.719 411.553 208.579 416.988 208.743 422.392
C 205.833 422.481 202.934 422.206 200.021 422.388
C 199.356 421.578 199.845 419.257 199.841 418.202
C 199.827 414.468 199.812 410.734 199.799 407
C 199.751 392.41 200.213 377.736 199.664 363.157 Z"
opacity="1" fill="rgb(52,98,144)" fill-rule="evenodd" />
<path d="
M 206.806 228.074
C 217.409 215.105 224.39 200.451 231.491 185.391
C 239.946 167.462 249.282 148.79 262.155 133.583
C 261.398 152.367 261.784 171.2 261.711 190.002
C 261.684 196.834 261.654 203.667 261.646 210.499
C 261.642 213.819 261.202 217.507 261.688 220.786
C 249.314 219.299 236.465 221.566 224.444 224.314
C 220.363 225.247 216.208 226.087 212.176 227.21
C 210.774 227.6 208.138 228.807 206.74 228.461
C 206.762 228.332 206.784 228.203 206.806 228.074 Z"
opacity="1" fill="rgb(68,131,157)" fill-rule="evenodd" />
<path d="
M 247.887 408.076
C 251.251 395.762 266.074 398.565 275.874 398.214
C 276.088 397.387 275.812 396.235 275.703 395.398
C 274.642 387.26 264.38 387.763 258.402 389.706
C 256.628 390.283 254.87 391.923 253.178 392.326
C 252.308 390.838 251.772 389.019 251.061 387.439
C 250.783 386.821 250.379 386.215 250.534 385.558
C 253.658 383.371 257.421 382.254 261.144 381.598
C 263.925 381.108 266.785 381.049 269.595 381.267
C 271.524 381.417 273.494 381.82 275.295 382.54
C 284.478 386.214 284.362 395.55 284.303 403.96
C 284.276 407.807 284.273 411.653 284.263 415.5
C 284.258 417.589 283.862 420.205 284.33 422.238
C 281.611 422.21 278.888 422.076 276.173 422.27
C 276.055 420.645 276.175 418.986 276.18 417.356
C 273.83 419.245 271.709 421.365 268.745 422.278
C 261.077 424.639 248.948 422.064 247.796 412.645
C 247.613 411.144 247.62 409.564 247.887 408.076 Z
M 256.344 408.536
C 254.529 416.319 264.024 418.089 269.498 415.978
C 274.985 413.863 275.477 409.772 275.812 404.522
C 274.151 403.96 271.795 404.288 270.048 404.276
C 265.084 404.24 258.837 403.212 256.344 408.536 Z"
opacity="1" fill="rgb(48,95,142)" fill-rule="evenodd" />
<path d="
M 275.3 123.209
C 277.69 125.168 279.529 127.99 281.381 130.45
C 284.249 134.261 287.191 137.973 289.864 141.935
C 299.987 156.939 307.931 174.073 313.064 191.423
C 314.623 196.692 316.023 202.091 316.782 207.54
C 317.032 209.337 317.534 211.127 317.485 212.95
C 309.26 213.346 301.155 213.579 293.001 214.945
C 289.76 215.488 286.558 216.189 283.355 216.919
C 281.702 217.296 279.948 218.048 278.253 218.112
C 282.244 209.144 283.449 198.157 283.91 188.442
C 284.956 166.446 281.883 144.268 275.023 123.332
C 275.115 123.291 275.207 123.25 275.3 123.209 Z"
opacity="1" fill="rgb(79,141,161)" fill-rule="evenodd" />
<path d="
M 291.328 382.321
C 293.335 382.376 295.353 382.237 297.363 382.245
C 297.675 381.958 297.508 380.249 297.54 379.788
C 297.726 377.146 297.653 374.496 297.759 371.852
C 300.579 371.846 303.401 371.732 306.223 371.736
C 306.694 374.168 306.279 377.016 306.316 379.496
C 306.327 380.231 306.078 381.778 306.489 382.339
C 310.084 382.286 313.723 382.26 317.311 382.039
C 317.15 384.232 317.024 386.745 317.347 388.923
C 315.082 389.207 312.37 389.118 310.079 389.03
C 309.093 388.992 307.243 388.795 306.469 389.358
C 306.162 395.042 306.322 400.772 306.325 406.464
C 306.326 408.877 305.93 411.901 307.608 413.89
C 310.139 416.889 313.712 415.458 316.714 414.325
C 316.935 414.385 317.21 415.475 317.301 415.734
C 317.892 417.421 319.006 419.285 319.361 420.995
C 316.771 421.944 314.28 422.914 311.481 423.087
C 309.867 423.186 308.196 423.038 306.624 422.653
C 295.272 419.871 297.703 406.311 297.732 397.44
C 297.739 395.396 297.737 393.35 297.78 391.306
C 297.793 390.714 298.038 389.461 297.731 388.97
C 295.518 388.836 293.348 389.068 291.149 389.083
C 290.963 387.235 290.509 383.984 291.328 382.321 Z"
opacity="1" fill="rgb(47,95,141)" fill-rule="evenodd" />
<path d="
M 326.483 364.105
C 326.532 363.46 326.519 363.845 326.475 362.95
C 328.806 362.852 331.165 362.954 333.495 363.004
C 334.059 363.017 335.372 362.634 335.717 363.079
C 335.983 371.201 335.395 379.364 335.483 387.474
C 335.625 387.892 337.111 385.813 337.445 385.474
C 338.809 384.091 340.639 382.942 342.442 382.22
C 348.05 379.973 355.222 380.58 360.123 384.208
C 367.304 389.525 366.277 399.82 366.254 407.681
C 366.246 410.454 366.263 413.226 366.266 415.999
C 366.268 417.978 365.917 420.4 366.331 422.323
C 363.399 422.212 360.438 422.179 357.513 422.403
C 356.571 420.802 357.318 416.878 357.318 414.998
C 357.318 410.875 357.31 406.752 357.343 402.629
C 357.369 399.45 357.499 396.024 355.747 393.21
C 351.346 386.141 340.941 387.952 337.135 394.459
C 335.161 397.834 335.411 401.495 335.381 405.267
C 335.336 410.931 335.112 416.679 335.396 422.334
C 332.463 422.228 329.494 422.11 326.567 422.374
C 326.328 419.132 326.619 415.76 326.619 412.5
C 326.619 406.165 326.574 399.83 326.591 393.495
C 326.617 383.74 325.973 373.835 326.483 364.105 Z"
opacity="1" fill="rgb(50,96,141)" fill-rule="evenodd" />
<path d="
M 376.854 382.546
C 376.974 382.361 377.094 382.176 377.215 381.991
C 379.309 381.87 381.398 381.887 383.497 381.83
C 384.039 381.815 385.519 381.531 385.809 381.97
C 385.531 388.036 385.747 394.179 385.771 400.252
C 385.785 403.531 385.451 407.359 386.898 410.408
C 390.798 418.627 402.474 416.079 405.916 409.021
C 407.399 405.979 407.314 402.649 407.325 399.347
C 407.344 393.689 406.663 387.506 407.491 381.916
C 409.567 381.922 411.642 381.91 413.717 381.859
C 414.581 381.838 415.607 381.636 416.429 381.939
C 415.778 390.534 416.423 399.384 416.411 408.005
C 416.404 412.551 415.516 418.071 416.498 422.503
C 416.05 422.812 414.581 422.443 414.005 422.435
C 411.997 422.407 409.924 422.222 407.928 422.464
C 407.655 420.34 408.222 418.187 408.032 416.061
C 406.859 416.561 405.677 418.641 404.629 419.536
C 402.475 421.376 399.664 422.454 396.907 422.97
C 394.846 423.356 392.712 423.402 390.639 423.07
C 388.844 422.783 386.991 422.284 385.368 421.447
C 375.555 416.388 376.772 405.395 376.787 395.988
C 376.794 391.535 376.549 386.986 376.854 382.546 Z"
opacity="1" fill="rgb(50,97,142)" fill-rule="evenodd" />
<path d="
M 427.984 399.62
C 428.61 394.021 428.462 387.684 428.095 382.061
C 428.506 381.592 429.856 381.871 430.497 381.891
C 432.497 381.951 434.514 381.931 436.515 381.898
C 436.513 384.424 436.693 386.955 436.529 389.477
C 437.879 388.594 438.571 386.54 439.774 385.391
C 443.174 382.144 447.18 381.211 451.766 381.23
C 451.651 383.883 451.459 386.718 451.748 389.36
C 449.153 389.355 446.534 389.379 444.091 390.383
C 435.147 394.06 436.738 404.846 436.758 412.639
C 436.766 415.881 436.653 419.154 436.825 422.39
C 434.065 422.279 430.668 422.932 428.029 422.286
C 427.919 414.763 427.676 407.148 427.984 399.62 Z"
opacity="1" fill="rgb(50,98,143)" fill-rule="evenodd" />
<path d="
M 459.028 382.608
C 459.025 382.472 459.023 382.336 459.021 382.2
C 459.71 381.504 460.656 381.73 461.593 381.762
C 463.646 381.833 465.896 381.499 467.918 381.852
C 467.423 387.739 467.918 393.829 467.937 399.735
C 467.947 402.883 467.562 406.933 468.913 409.868
C 472.612 417.907 484.528 416.56 488.026 409.144
C 489.636 405.732 489.388 401.973 489.395 398.295
C 489.406 392.978 489.584 387.627 489.451 382.316
C 490.715 381.191 494.342 381.836 496.048 381.792
C 496.701 381.775 497.838 381.549 498.347 381.974
C 498.155 390.805 498.367 399.668 498.367 408.502
C 498.367 412.975 497.674 418.025 498.394 422.432
C 495.6 422.381 492.684 422.061 489.909 422.445
C 489.608 420.504 490.168 418.503 489.97 416.556
C 489.444 416.568 489.025 417.478 488.654 417.865
C 487.797 418.756 486.811 419.659 485.756 420.313
C 482.833 422.126 479.522 423.089 476.088 423.207
C 474.24 423.271 472.321 423.011 470.535 422.555
C 469.085 422.184 467.747 421.578 466.447 420.848
C 456.452 415.237 459.054 400.782 459.079 391.216
C 459.086 388.345 459.079 385.475 459.028 382.608 Z"
opacity="1" fill="rgb(52,99,145)" fill-rule="evenodd" />

</svg>