<svg xmlns="http://www.w3.org/2000/svg"
shape-rendering="geometricPrecision"
width="4000" height="4000" viewBox="0 0 1024 1024">
  <metadata>null</metadata>

<path d="
M 221.594 665.066
C 227.413 660.751 233.804 657.411 240.252 654.131
C 251.917 648.198 263.761 643.362 276.248 639.437
C 337.593 620.155 405.38 629.302 463.948 653.433
C 490.165 664.235 514.71 678.489 540.666 689.817
C 558.489 697.596 576.802 704.526 595.742 709.094
C 622.115 715.455 650.676 715.784 677.319 710.93
C 687.218 709.127 696.905 706.598 706.446 703.407
C 709.291 702.456 712.005 700.972 714.857 700.117
C 715.591 699.897 716.689 699.111 717.445 699.329
C 717.071 700.891 714.793 702.263 713.65 703.319
C 710.083 706.615 706.325 709.552 702.529 712.567
C 685.772 725.872 666.162 735.775 645.99 742.715
C 633.302 747.08 620.267 749.534 606.971 751.072
C 590.031 753.032 571.975 750.731 555.427 747.08
C 532.102 741.934 510.069 733.024 488.792 722.244
C 474.029 714.764 459.962 706.065 445.399 698.223
C 422.854 686.083 399.845 674.675 375.469 666.676
C 342.208 655.761 306.862 650.857 271.959 654.322
C 260.218 655.488 248.865 657.846 237.422 660.657
C 233.318 661.666 229.399 663.368 225.399 664.704
C 224.363 665.049 223.353 665.565 222.304 665.852
C 221.629 666.036 221.028 665.793 221.594 665.066 Z"
opacity="1" fill="rgb(50,36,86)" fill-rule="evenodd" />
<path d="
M 289.063 622.539
C 295.834 618.485 302.932 615.545 310.207 612.485
C 328.331 604.86 347.195 600.155 366.672 597.616
C 397.713 593.568 429.489 594.07 460.344 599.51
C 480.004 602.977 498.973 608.409 517.975 614.413
C 528.676 617.794 539.29 621.969 549.71 626.128
C 559.35 629.976 569.23 633.274 578.954 636.907
C 603.467 646.067 628.443 654.777 654.562 657.998
C 685.735 661.842 717.738 659.369 747.209 647.994
C 757.798 643.907 768.044 638.997 777.583 632.81
C 780.463 630.941 783.245 628.933 786.101 627.032
C 786.916 626.49 788.278 624.853 789.269 624.87
C 788.734 626.553 787.117 627.947 786.108 629.377
C 782.907 633.913 779.28 638.103 775.578 642.231
C 761.397 658.045 745.258 670.705 726.442 680.584
C 713.743 687.25 700.476 692.308 686.473 695.462
C 660.541 701.303 633.677 701.778 607.605 696.461
C 573.583 689.524 541.502 673.479 510.435 658.531
C 479.741 643.762 447.827 630.573 414.49 623.152
C 385.974 616.805 356.923 614.901 327.809 616.736
C 319.632 617.252 310.991 618.035 303.004 619.922
C 299.879 620.661 296.702 621.256 293.591 622.046
C 291.988 622.454 290.383 623.353 288.692 623.048
C 288.816 622.878 288.939 622.709 289.063 622.539 Z"
opacity="1" fill="rgb(107,162,164)" fill-rule="evenodd" />
<path d="
M 315.127 666.214
C 320.97 666.794 326.855 668.323 332.641 669.371
C 366.66 675.535 398.457 688.538 429.102 704.259
C 437.644 708.642 446.02 713.406 454.311 718.243
C 456.179 719.332 457.979 720.653 459.99 721.451
C 460.69 721.728 462.176 722.282 462.399 723.04
C 462.069 723.436 460.563 723.139 460.056 723.085
C 457.755 722.839 455.394 722.775 453.077 722.725
C 443.547 722.519 434.026 721.893 424.589 720.536
C 393.084 716.004 364.655 703.722 338.459 685.88
C 333.05 682.196 327.826 678.033 322.892 673.735
C 320.263 671.444 317.082 669.122 315.127 666.214 Z"
opacity="1" fill="rgb(39,22,66)" fill-rule="evenodd" />
<path d="
M 385.915 580.422
C 416.953 576.273 447.859 570.674 478.95 566.742
C 488.938 565.479 498.907 563.94 508.911 562.819
C 511.964 562.477 515.017 562.171 518.07 561.815
C 519.016 561.705 520.666 561.928 521.485 561.516
C 520.687 534.721 521.465 507.802 521.59 480.996
C 521.818 431.828 522.141 382.666 522.291 333.5
C 522.343 316.4 522.739 299.281 522.625 282.188
C 522.658 281.883 522.425 281.338 522.725 281.273
C 522.9 281.236 523.998 282.921 524.143 283.19
C 525.415 285.562 526.174 288.183 526.843 290.775
C 528.545 297.37 528.272 304.727 528.363 311.491
C 528.645 332.296 528.798 353.109 528.843 373.917
C 528.941 419.586 528.707 465.346 529.582 510.995
C 529.898 527.481 529.071 544.071 529.786 560.537
C 537.374 558.951 545.276 558.486 552.964 557.569
C 569.621 555.583 586.353 554.07 603.078 552.748
C 636.01 550.145 668.916 547.115 701.971 546.497
C 701.534 547.56 700.378 548.456 699.666 549.373
C 698.027 551.481 696.433 553.616 694.726 555.669
C 689.917 561.451 685.306 567.435 680.614 573.314
C 669.276 587.52 657.612 601.367 645.751 615.129
C 641.578 619.972 637.211 624.621 632.797 629.247
C 630.111 632.061 627.33 635.258 624.273 637.655
C 622.705 638.02 620.616 636.876 619.108 636.475
C 614.744 635.314 610.441 633.83 606.128 632.49
C 589.848 627.432 573.88 621.048 557.993 614.882
C 535.051 605.977 511.746 597.653 487.881 591.581
C 473.664 587.964 459.29 585.99 444.875 583.491
C 432.576 581.358 419.479 580.604 407.009 580.863
C 402.337 580.96 397.678 580.915 393.006 580.847
C 390.822 580.815 387.972 581.265 385.915 580.422 Z"
opacity="1" fill="rgb(45,95,137)" fill-rule="evenodd" />
<path d="
M 401.433 566.684
C 413.837 551.62 424.465 535.121 433.307 517.706
C 440.263 504.005 446.452 489.955 452.95 476.039
C 462.463 455.669 472.828 435.533 484.376 416.247
C 489.791 407.203 495.615 398.449 501.864 389.962
C 504.415 386.497 506.776 382.754 509.669 379.565
C 509.946 382.819 509.487 386.224 509.398 389.494
C 509.254 394.825 509.287 400.164 509.27 405.497
C 509.208 424.998 509.188 444.501 509.193 464.002
C 509.197 483.835 509.272 503.669 509.18 523.501
C 509.145 530.992 509.346 538.536 509 546.009
C 508.918 547.779 509.275 549.532 509.096 551.309
C 508.515 551.633 506.873 551.307 506.207 551.298
C 503.695 551.263 501.186 551.091 498.676 551.017
C 490.578 550.779 482.493 551.113 474.427 551.802
C 458.041 553.2 441.93 556.954 425.972 560.811
C 420.471 562.141 414.981 563.53 409.49 564.887
C 406.78 565.557 404.172 566.882 401.374 567.106
C 401.394 566.966 401.413 566.825 401.433 566.684 Z"
opacity="1" fill="rgb(68,130,157)" fill-rule="evenodd" />
<path d="
M 535.503 358.271
C 540.009 361.424 543.335 367.012 546.654 371.347
C 553.184 379.878 559.528 388.475 565.429 397.463
C 579.678 419.163 591.049 442.482 600.566 466.604
C 609.36 488.893 616.406 512.148 619.013 536.053
C 616.533 536.87 612.842 536.174 610.229 536.231
C 603.948 536.366 597.346 536.459 591.134 537.424
C 580.74 539.04 570.277 539.932 559.901 541.845
C 554.036 542.926 548.169 545.214 542.298 545.959
C 541.874 544.192 543.518 541.225 543.998 539.459
C 545.435 534.162 546.963 528.899 548.153 523.539
C 551.469 508.599 552.864 493.157 553.261 477.878
C 553.934 451.953 551.225 425.624 546.123 400.218
C 543.281 386.067 538.256 372.407 535.503 358.271 Z"
opacity="1" fill="rgb(78,140,161)" fill-rule="evenodd" />

</svg>